# xmcd
#
# Track frame offsets:
#	150
#	18452
#	32927
#	53605
#	71157
#	79572
#	94532
#	112885
#	125297
#	139035
#	158280
#	174545
#
# Disc length: 2493 seconds
#
# Revision: 0
# Processed by: cddbd v1.4PL0 Copyright (c) Steve Scherf et al.
# Submitted via: EasyCDDAExtractor 5.0.5.1
#
DISCID=8b09bb0c
DTITLE=Annie and Amy - Dancin' in the Wind
DYEAR=1995
DGENRE=Country
TTITLE0=Golden Fields
TTITLE1=Love and Levis
TTITLE2=Tennessee Tears
TTITLE3=Are You Ready
TTITLE4=Everybody Else but You
TTITLE5=You Can't Judge a Man
TTITLE6=Darlin' Won't You Please
TTITLE7=Cheyenne Dandies
TTITLE8=If You're Lyin'
TTITLE9=Nellie
TTITLE10=Lila the Lady Marshall
TTITLE11=High Flyer
EXTD=
EXTT0=
EXTT1=
EXTT2=
EXTT3=
EXTT4=
EXTT5=
EXTT6=
EXTT7=
EXTT8=
EXTT9=
EXTT10=
EXTT11=
PLAYORDER=
